<mxfile host="app.diagrams.net" modified="2022-10-14T08:19:16.490Z" agent="5.0 (Macintosh; Intel Mac OS X 10_15_7) AppleWebKit/537.36 (KHTML, like Gecko) Chrome/105.0.0.0 Safari/537.36" etag="8bxURrRA7v8O2KwR3lFV" version="20.4.0" type="github" pages="3">
  <diagram id="C5RBs43oDa-KdzZeNtuy" name="首页">
    <mxGraphModel dx="1106" dy="614" grid="1" gridSize="10" guides="1" tooltips="1" connect="1" arrows="1" fold="1" page="1" pageScale="1" pageWidth="827" pageHeight="1169" math="0" shadow="0">
      <root>
        <mxCell id="WIyWlLk6GJQsqaUBKTNV-0" />
        <mxCell id="WIyWlLk6GJQsqaUBKTNV-1" parent="WIyWlLk6GJQsqaUBKTNV-0" />
        <mxCell id="HV9Sme8KzqDoX2qMjPiU-1" value="" style="shape=cylinder3;whiteSpace=wrap;html=1;boundedLbl=1;backgroundOutline=1;size=15;fillColor=#FC9900;" vertex="1" parent="WIyWlLk6GJQsqaUBKTNV-1">
          <mxGeometry x="110" y="150" width="50" height="70" as="geometry" />
        </mxCell>
        <mxCell id="HV9Sme8KzqDoX2qMjPiU-2" value="" style="rounded=0;whiteSpace=wrap;html=1;strokeWidth=1.5;fillColor=#FC9900;" vertex="1" parent="WIyWlLk6GJQsqaUBKTNV-1">
          <mxGeometry x="230" y="150" width="320" height="60" as="geometry" />
        </mxCell>
        <mxCell id="HV9Sme8KzqDoX2qMjPiU-4" value="Category A" style="text;html=1;align=center;verticalAlign=middle;resizable=0;points=[];autosize=1;strokeColor=none;fillColor=none;" vertex="1" parent="WIyWlLk6GJQsqaUBKTNV-1">
          <mxGeometry x="20" y="170" width="80" height="30" as="geometry" />
        </mxCell>
        <mxCell id="HV9Sme8KzqDoX2qMjPiU-5" value="Bridge Adapter" style="rounded=0;whiteSpace=wrap;html=1;strokeWidth=1.5;fillColor=#F9CA9C;" vertex="1" parent="WIyWlLk6GJQsqaUBKTNV-1">
          <mxGeometry x="250" y="160" width="80" height="40" as="geometry" />
        </mxCell>
        <mxCell id="HV9Sme8KzqDoX2qMjPiU-6" value="accessPoint" style="rounded=0;whiteSpace=wrap;html=1;strokeWidth=1.5;fillColor=#F9CA9C;" vertex="1" parent="WIyWlLk6GJQsqaUBKTNV-1">
          <mxGeometry x="350" y="160" width="80" height="40" as="geometry" />
        </mxCell>
        <mxCell id="HV9Sme8KzqDoX2qMjPiU-7" value="compliance" style="rounded=0;whiteSpace=wrap;html=1;strokeWidth=1.5;fillColor=#F9CA9C;" vertex="1" parent="WIyWlLk6GJQsqaUBKTNV-1">
          <mxGeometry x="450" y="160" width="80" height="40" as="geometry" />
        </mxCell>
        <mxCell id="HV9Sme8KzqDoX2qMjPiU-8" value="" style="rounded=0;whiteSpace=wrap;html=1;strokeWidth=1.5;fillColor=#FC9900;" vertex="1" parent="WIyWlLk6GJQsqaUBKTNV-1">
          <mxGeometry x="640" y="150" width="80" height="60" as="geometry" />
        </mxCell>
        <mxCell id="HV9Sme8KzqDoX2qMjPiU-9" value="Mini App" style="text;html=1;align=center;verticalAlign=middle;resizable=0;points=[];autosize=1;strokeColor=none;fillColor=none;" vertex="1" parent="WIyWlLk6GJQsqaUBKTNV-1">
          <mxGeometry x="640" y="105" width="70" height="30" as="geometry" />
        </mxCell>
        <mxCell id="HV9Sme8KzqDoX2qMjPiU-10" value="" style="whiteSpace=wrap;html=1;strokeWidth=1.5;" vertex="1" parent="WIyWlLk6GJQsqaUBKTNV-1">
          <mxGeometry x="850" y="210" width="180" height="140" as="geometry" />
        </mxCell>
        <mxCell id="HV9Sme8KzqDoX2qMjPiU-11" value="ESApp&lt;br&gt;（AccessPoint manage category&#39;s display)" style="text;html=1;align=center;verticalAlign=middle;resizable=0;points=[];autosize=1;strokeColor=none;fillColor=none;" vertex="1" parent="WIyWlLk6GJQsqaUBKTNV-1">
          <mxGeometry x="810" y="165" width="250" height="40" as="geometry" />
        </mxCell>
        <mxCell id="HV9Sme8KzqDoX2qMjPiU-13" value="Category Config &amp;amp; Publish" style="text;html=1;align=center;verticalAlign=middle;resizable=0;points=[];autosize=1;strokeColor=none;fillColor=none;" vertex="1" parent="WIyWlLk6GJQsqaUBKTNV-1">
          <mxGeometry x="310" y="105" width="160" height="30" as="geometry" />
        </mxCell>
        <mxCell id="HV9Sme8KzqDoX2qMjPiU-14" value="" style="endArrow=classic;html=1;rounded=0;strokeWidth=2;" edge="1" parent="WIyWlLk6GJQsqaUBKTNV-1">
          <mxGeometry width="50" height="50" relative="1" as="geometry">
            <mxPoint x="170" y="185" as="sourcePoint" />
            <mxPoint x="220" y="184.5" as="targetPoint" />
          </mxGeometry>
        </mxCell>
        <mxCell id="HV9Sme8KzqDoX2qMjPiU-15" value="" style="endArrow=classic;html=1;rounded=0;strokeWidth=2;" edge="1" parent="WIyWlLk6GJQsqaUBKTNV-1">
          <mxGeometry width="50" height="50" relative="1" as="geometry">
            <mxPoint x="570" y="180" as="sourcePoint" />
            <mxPoint x="620" y="179.5" as="targetPoint" />
          </mxGeometry>
        </mxCell>
        <mxCell id="HV9Sme8KzqDoX2qMjPiU-16" value="" style="shape=cylinder3;whiteSpace=wrap;html=1;boundedLbl=1;backgroundOutline=1;size=15;fillColor=#049D0E;" vertex="1" parent="WIyWlLk6GJQsqaUBKTNV-1">
          <mxGeometry x="110" y="260" width="50" height="70" as="geometry" />
        </mxCell>
        <mxCell id="HV9Sme8KzqDoX2qMjPiU-17" value="" style="rounded=0;whiteSpace=wrap;html=1;strokeWidth=1.5;fillColor=#049D0E;" vertex="1" parent="WIyWlLk6GJQsqaUBKTNV-1">
          <mxGeometry x="230" y="260" width="320" height="60" as="geometry" />
        </mxCell>
        <mxCell id="HV9Sme8KzqDoX2qMjPiU-18" value="Category B" style="text;html=1;align=center;verticalAlign=middle;resizable=0;points=[];autosize=1;strokeColor=none;fillColor=none;" vertex="1" parent="WIyWlLk6GJQsqaUBKTNV-1">
          <mxGeometry x="20" y="280" width="80" height="30" as="geometry" />
        </mxCell>
        <mxCell id="HV9Sme8KzqDoX2qMjPiU-19" value="Bridge Adapter" style="rounded=0;whiteSpace=wrap;html=1;strokeWidth=1.5;fillColor=#B7D9A9;" vertex="1" parent="WIyWlLk6GJQsqaUBKTNV-1">
          <mxGeometry x="250" y="270" width="80" height="40" as="geometry" />
        </mxCell>
        <mxCell id="HV9Sme8KzqDoX2qMjPiU-20" value="accessPoint" style="rounded=0;whiteSpace=wrap;html=1;strokeWidth=1.5;fillColor=#B7D9A9;" vertex="1" parent="WIyWlLk6GJQsqaUBKTNV-1">
          <mxGeometry x="350" y="270" width="80" height="40" as="geometry" />
        </mxCell>
        <mxCell id="HV9Sme8KzqDoX2qMjPiU-21" value="compliance" style="rounded=0;whiteSpace=wrap;html=1;strokeWidth=1.5;fillColor=#B7D9A9;" vertex="1" parent="WIyWlLk6GJQsqaUBKTNV-1">
          <mxGeometry x="450" y="270" width="80" height="40" as="geometry" />
        </mxCell>
        <mxCell id="HV9Sme8KzqDoX2qMjPiU-22" value="" style="rounded=0;whiteSpace=wrap;html=1;strokeWidth=1.5;fillColor=#049D0E;" vertex="1" parent="WIyWlLk6GJQsqaUBKTNV-1">
          <mxGeometry x="640" y="260" width="80" height="60" as="geometry" />
        </mxCell>
        <mxCell id="HV9Sme8KzqDoX2qMjPiU-23" value="" style="endArrow=classic;html=1;rounded=0;strokeWidth=2;" edge="1" parent="WIyWlLk6GJQsqaUBKTNV-1">
          <mxGeometry width="50" height="50" relative="1" as="geometry">
            <mxPoint x="170" y="295" as="sourcePoint" />
            <mxPoint x="220" y="294.5" as="targetPoint" />
          </mxGeometry>
        </mxCell>
        <mxCell id="HV9Sme8KzqDoX2qMjPiU-24" value="" style="endArrow=classic;html=1;rounded=0;strokeWidth=2;" edge="1" parent="WIyWlLk6GJQsqaUBKTNV-1">
          <mxGeometry width="50" height="50" relative="1" as="geometry">
            <mxPoint x="570" y="290" as="sourcePoint" />
            <mxPoint x="620" y="289.5" as="targetPoint" />
          </mxGeometry>
        </mxCell>
        <mxCell id="HV9Sme8KzqDoX2qMjPiU-25" value="" style="shape=cylinder3;whiteSpace=wrap;html=1;boundedLbl=1;backgroundOutline=1;size=15;fillColor=#9B01FF;" vertex="1" parent="WIyWlLk6GJQsqaUBKTNV-1">
          <mxGeometry x="110" y="370" width="50" height="70" as="geometry" />
        </mxCell>
        <mxCell id="HV9Sme8KzqDoX2qMjPiU-26" value="" style="rounded=0;whiteSpace=wrap;html=1;strokeWidth=1.5;fillColor=#9B01FF;" vertex="1" parent="WIyWlLk6GJQsqaUBKTNV-1">
          <mxGeometry x="230" y="370" width="320" height="60" as="geometry" />
        </mxCell>
        <mxCell id="HV9Sme8KzqDoX2qMjPiU-27" value="Category C" style="text;html=1;align=center;verticalAlign=middle;resizable=0;points=[];autosize=1;strokeColor=none;fillColor=none;" vertex="1" parent="WIyWlLk6GJQsqaUBKTNV-1">
          <mxGeometry x="20" y="390" width="80" height="30" as="geometry" />
        </mxCell>
        <mxCell id="HV9Sme8KzqDoX2qMjPiU-28" value="Bridge Adapter" style="rounded=0;whiteSpace=wrap;html=1;strokeWidth=1.5;fillColor=#B3A7D4;" vertex="1" parent="WIyWlLk6GJQsqaUBKTNV-1">
          <mxGeometry x="250" y="380" width="80" height="40" as="geometry" />
        </mxCell>
        <mxCell id="HV9Sme8KzqDoX2qMjPiU-29" value="accessPoint" style="rounded=0;whiteSpace=wrap;html=1;strokeWidth=1.5;fillColor=#B3A7D4;" vertex="1" parent="WIyWlLk6GJQsqaUBKTNV-1">
          <mxGeometry x="350" y="380" width="80" height="40" as="geometry" />
        </mxCell>
        <mxCell id="HV9Sme8KzqDoX2qMjPiU-30" value="compliance" style="rounded=0;whiteSpace=wrap;html=1;strokeWidth=1.5;fillColor=#B3A7D4;" vertex="1" parent="WIyWlLk6GJQsqaUBKTNV-1">
          <mxGeometry x="450" y="380" width="80" height="40" as="geometry" />
        </mxCell>
        <mxCell id="HV9Sme8KzqDoX2qMjPiU-31" value="" style="rounded=0;whiteSpace=wrap;html=1;strokeWidth=1.5;fillColor=#9B01FF;" vertex="1" parent="WIyWlLk6GJQsqaUBKTNV-1">
          <mxGeometry x="640" y="370" width="80" height="60" as="geometry" />
        </mxCell>
        <mxCell id="HV9Sme8KzqDoX2qMjPiU-32" value="" style="endArrow=classic;html=1;rounded=0;strokeWidth=2;" edge="1" parent="WIyWlLk6GJQsqaUBKTNV-1">
          <mxGeometry width="50" height="50" relative="1" as="geometry">
            <mxPoint x="170" y="405" as="sourcePoint" />
            <mxPoint x="220" y="404.5" as="targetPoint" />
          </mxGeometry>
        </mxCell>
        <mxCell id="HV9Sme8KzqDoX2qMjPiU-33" value="" style="endArrow=classic;html=1;rounded=0;strokeWidth=2;" edge="1" parent="WIyWlLk6GJQsqaUBKTNV-1">
          <mxGeometry width="50" height="50" relative="1" as="geometry">
            <mxPoint x="570" y="400" as="sourcePoint" />
            <mxPoint x="620" y="399.5" as="targetPoint" />
          </mxGeometry>
        </mxCell>
        <mxCell id="HV9Sme8KzqDoX2qMjPiU-36" value="" style="endArrow=classic;html=1;rounded=0;strokeWidth=2;fontColor=#FFFFFF;" edge="1" parent="WIyWlLk6GJQsqaUBKTNV-1">
          <mxGeometry width="50" height="50" relative="1" as="geometry">
            <mxPoint x="750" y="180" as="sourcePoint" />
            <mxPoint x="800" y="230" as="targetPoint" />
          </mxGeometry>
        </mxCell>
        <mxCell id="HV9Sme8KzqDoX2qMjPiU-37" value="" style="endArrow=classic;html=1;rounded=0;strokeWidth=2;fontColor=#FFFFFF;" edge="1" parent="WIyWlLk6GJQsqaUBKTNV-1">
          <mxGeometry width="50" height="50" relative="1" as="geometry">
            <mxPoint x="750" y="294.5" as="sourcePoint" />
            <mxPoint x="810" y="294.5" as="targetPoint" />
          </mxGeometry>
        </mxCell>
        <mxCell id="HV9Sme8KzqDoX2qMjPiU-38" value="" style="endArrow=classic;html=1;rounded=0;strokeWidth=2;fontColor=#FFFFFF;" edge="1" parent="WIyWlLk6GJQsqaUBKTNV-1">
          <mxGeometry width="50" height="50" relative="1" as="geometry">
            <mxPoint x="750" y="400" as="sourcePoint" />
            <mxPoint x="810" y="350" as="targetPoint" />
          </mxGeometry>
        </mxCell>
        <mxCell id="HV9Sme8KzqDoX2qMjPiU-39" value="Access Category" style="text;html=1;align=center;verticalAlign=middle;resizable=0;points=[];autosize=1;strokeColor=none;fillColor=none;fontColor=#000000;" vertex="1" parent="WIyWlLk6GJQsqaUBKTNV-1">
          <mxGeometry x="60" y="105" width="110" height="30" as="geometry" />
        </mxCell>
        <mxCell id="HV9Sme8KzqDoX2qMjPiU-12" value="" style="rounded=0;whiteSpace=wrap;html=1;strokeWidth=1.5;fillColor=#FC9900;" vertex="1" parent="WIyWlLk6GJQsqaUBKTNV-1">
          <mxGeometry x="902.5" y="220" width="65" height="50" as="geometry" />
        </mxCell>
        <mxCell id="HV9Sme8KzqDoX2qMjPiU-34" value="" style="rounded=0;whiteSpace=wrap;html=1;strokeWidth=1.5;fillColor=#049D0E;" vertex="1" parent="WIyWlLk6GJQsqaUBKTNV-1">
          <mxGeometry x="860" y="283" width="65" height="50" as="geometry" />
        </mxCell>
        <mxCell id="HV9Sme8KzqDoX2qMjPiU-35" value="" style="rounded=0;whiteSpace=wrap;html=1;strokeWidth=1.5;fillColor=#9B01FF;" vertex="1" parent="WIyWlLk6GJQsqaUBKTNV-1">
          <mxGeometry x="950" y="283" width="65" height="50" as="geometry" />
        </mxCell>
      </root>
    </mxGraphModel>
  </diagram>
  <diagram id="SLVYUZhIPO5BQ6OgGvNP" name="其他 page">
    <mxGraphModel dx="1106" dy="614" grid="1" gridSize="10" guides="1" tooltips="1" connect="1" arrows="1" fold="1" page="1" pageScale="1" pageWidth="827" pageHeight="1169" math="0" shadow="0">
      <root>
        <mxCell id="0" />
        <mxCell id="1" parent="0" />
        <mxCell id="UOCPMdC7vV6jncAT-NW4-1" value="监控" style="rounded=0;whiteSpace=wrap;html=1;strokeWidth=1.5;fontColor=#000000;fillColor=#FFFFFF;" vertex="1" parent="1">
          <mxGeometry x="150" y="170" width="120" height="60" as="geometry" />
        </mxCell>
        <mxCell id="UOCPMdC7vV6jncAT-NW4-2" value="下载、加载、使用" style="text;html=1;align=center;verticalAlign=middle;resizable=0;points=[];autosize=1;strokeColor=none;fillColor=none;fontColor=#000000;" vertex="1" parent="1">
          <mxGeometry x="150" y="250" width="120" height="30" as="geometry" />
        </mxCell>
        <mxCell id="UOCPMdC7vV6jncAT-NW4-3" value="发布" style="rounded=0;whiteSpace=wrap;html=1;strokeWidth=1.5;fontColor=#000000;fillColor=#FFFFFF;" vertex="1" parent="1">
          <mxGeometry x="490" y="170" width="120" height="60" as="geometry" />
        </mxCell>
        <mxCell id="UOCPMdC7vV6jncAT-NW4-4" value="审批、灰度、增量、回滚" style="text;html=1;align=center;verticalAlign=middle;resizable=0;points=[];autosize=1;strokeColor=none;fillColor=none;fontColor=#000000;" vertex="1" parent="1">
          <mxGeometry x="470" y="255" width="160" height="30" as="geometry" />
        </mxCell>
        <mxCell id="UOCPMdC7vV6jncAT-NW4-6" value="故障、性能、业务&lt;br&gt;降级(主、被动)&lt;br&gt;日志" style="text;html=1;align=center;verticalAlign=middle;resizable=0;points=[];autosize=1;strokeColor=none;fillColor=none;fontColor=#000000;" vertex="1" parent="1">
          <mxGeometry x="150" y="280" width="120" height="60" as="geometry" />
        </mxCell>
        <mxCell id="UOCPMdC7vV6jncAT-NW4-7" value="样式动态配置" style="text;html=1;align=center;verticalAlign=middle;resizable=0;points=[];autosize=1;strokeColor=none;fillColor=none;fontColor=#000000;" vertex="1" parent="1">
          <mxGeometry x="510" y="440" width="100" height="30" as="geometry" />
        </mxCell>
        <mxCell id="UOCPMdC7vV6jncAT-NW4-8" value="模块编排" style="text;html=1;align=center;verticalAlign=middle;resizable=0;points=[];autosize=1;strokeColor=none;fillColor=none;fontColor=#000000;" vertex="1" parent="1">
          <mxGeometry x="515" y="395" width="70" height="30" as="geometry" />
        </mxCell>
      </root>
    </mxGraphModel>
  </diagram>
  <diagram id="iQkWHmByu0i23tVqcr8R" name="第 3 页">
    <mxGraphModel dx="1318" dy="1783" grid="1" gridSize="10" guides="1" tooltips="1" connect="1" arrows="1" fold="1" page="1" pageScale="1" pageWidth="827" pageHeight="1169" math="0" shadow="0">
      <root>
        <mxCell id="0" />
        <mxCell id="1" parent="0" />
        <mxCell id="DrM0dnxs3aiw_zaTAnNU-60" value="" style="whiteSpace=wrap;html=1;strokeWidth=1.5;fontColor=#000000;fillColor=#FFFFFF;" vertex="1" parent="1">
          <mxGeometry x="320" y="10" width="440" height="210" as="geometry" />
        </mxCell>
        <mxCell id="DrM0dnxs3aiw_zaTAnNU-1" value="" style="rounded=0;whiteSpace=wrap;html=1;strokeWidth=1.5;fontColor=#000000;fillColor=#FFFFFF;" vertex="1" parent="1">
          <mxGeometry x="120" y="380" width="660" height="240" as="geometry" />
        </mxCell>
        <mxCell id="DrM0dnxs3aiw_zaTAnNU-2" value="稳定区" style="text;html=1;align=center;verticalAlign=middle;resizable=0;points=[];autosize=1;strokeColor=none;fillColor=none;fontColor=#000000;" vertex="1" parent="1">
          <mxGeometry x="20" y="485" width="60" height="30" as="geometry" />
        </mxCell>
        <mxCell id="DrM0dnxs3aiw_zaTAnNU-3" value="基础能力层" style="whiteSpace=wrap;html=1;strokeWidth=1.5;fontColor=#000000;fillColor=#FFFFFF;" vertex="1" parent="1">
          <mxGeometry x="165" y="550" width="570" height="60" as="geometry" />
        </mxCell>
        <mxCell id="DrM0dnxs3aiw_zaTAnNU-4" value="通用业务组件" style="whiteSpace=wrap;html=1;strokeWidth=1.5;fontColor=#000000;fillColor=#FFFFFF;" vertex="1" parent="1">
          <mxGeometry x="165" y="485" width="120" height="50" as="geometry" />
        </mxCell>
        <mxCell id="DrM0dnxs3aiw_zaTAnNU-5" value="公共 UI 组件" style="whiteSpace=wrap;html=1;strokeWidth=1.5;fontColor=#000000;fillColor=#FFFFFF;" vertex="1" parent="1">
          <mxGeometry x="600" y="485" width="120" height="50" as="geometry" />
        </mxCell>
        <mxCell id="DrM0dnxs3aiw_zaTAnNU-6" value="ES 标准 Bridge" style="whiteSpace=wrap;html=1;strokeWidth=1.5;fontColor=#000000;fillColor=#FFFFFF;" vertex="1" parent="1">
          <mxGeometry x="165" y="390" width="555" height="40" as="geometry" />
        </mxCell>
        <mxCell id="DrM0dnxs3aiw_zaTAnNU-7" value="合规 Manager" style="whiteSpace=wrap;html=1;strokeWidth=1.5;fontColor=#000000;fillColor=#FFFFFF;" vertex="1" parent="1">
          <mxGeometry x="165" y="440" width="555" height="40" as="geometry" />
        </mxCell>
        <mxCell id="DrM0dnxs3aiw_zaTAnNU-8" value="" style="whiteSpace=wrap;html=1;strokeWidth=1.5;fontColor=#000000;fillColor=#FFFFFF;" vertex="1" parent="1">
          <mxGeometry x="120" y="190" width="170" height="180" as="geometry" />
        </mxCell>
        <mxCell id="DrM0dnxs3aiw_zaTAnNU-9" value="迭代区" style="text;html=1;align=center;verticalAlign=middle;resizable=0;points=[];autosize=1;strokeColor=none;fillColor=none;fontColor=#000000;" vertex="1" parent="1">
          <mxGeometry x="30" y="255" width="60" height="30" as="geometry" />
        </mxCell>
        <mxCell id="DrM0dnxs3aiw_zaTAnNU-11" value="动态发布区" style="text;html=1;align=center;verticalAlign=middle;resizable=0;points=[];autosize=1;strokeColor=none;fillColor=none;fontColor=#000000;" vertex="1" parent="1">
          <mxGeometry x="760" y="265" width="80" height="30" as="geometry" />
        </mxCell>
        <mxCell id="DrM0dnxs3aiw_zaTAnNU-12" value="公共产品、APP 首页" style="whiteSpace=wrap;html=1;strokeWidth=1.5;fontColor=#000000;fillColor=#FFFFFF;" vertex="1" parent="1">
          <mxGeometry x="120" y="-40" width="630" height="40" as="geometry" />
        </mxCell>
        <mxCell id="DrM0dnxs3aiw_zaTAnNU-14" value="小程序容器" style="whiteSpace=wrap;html=1;strokeWidth=1.5;fontColor=#000000;fillColor=#FFFFFF;" vertex="1" parent="1">
          <mxGeometry x="320" y="230" width="200" height="25" as="geometry" />
        </mxCell>
        <mxCell id="DrM0dnxs3aiw_zaTAnNU-17" value="bridge 兼容层" style="whiteSpace=wrap;html=1;strokeWidth=1.5;fontColor=#000000;fillColor=#FFFFFF;" vertex="1" parent="1">
          <mxGeometry x="345" y="305" width="395" height="32.5" as="geometry" />
        </mxCell>
        <mxCell id="DrM0dnxs3aiw_zaTAnNU-19" value="H5容器" style="whiteSpace=wrap;html=1;strokeWidth=1.5;fontColor=#000000;fillColor=#FFFFFF;" vertex="1" parent="1">
          <mxGeometry x="570" y="230" width="190" height="25" as="geometry" />
        </mxCell>
        <mxCell id="DrM0dnxs3aiw_zaTAnNU-34" value="" style="group" vertex="1" connectable="0" parent="1">
          <mxGeometry x="580" y="80" width="130" height="130" as="geometry" />
        </mxCell>
        <mxCell id="DrM0dnxs3aiw_zaTAnNU-31" value="" style="whiteSpace=wrap;html=1;strokeWidth=1.5;fontColor=#000000;fillColor=#FFFFFF;" vertex="1" parent="DrM0dnxs3aiw_zaTAnNU-34">
          <mxGeometry width="130" height="130" as="geometry" />
        </mxCell>
        <mxCell id="DrM0dnxs3aiw_zaTAnNU-24" value="故障监控" style="whiteSpace=wrap;html=1;strokeWidth=1.5;fontColor=#000000;fillColor=#FFFFFF;" vertex="1" parent="DrM0dnxs3aiw_zaTAnNU-34">
          <mxGeometry x="26" y="32.5" width="78" height="22" as="geometry" />
        </mxCell>
        <mxCell id="DrM0dnxs3aiw_zaTAnNU-29" value="性能监控" style="whiteSpace=wrap;html=1;strokeWidth=1.5;fontColor=#000000;fillColor=#FFFFFF;" vertex="1" parent="DrM0dnxs3aiw_zaTAnNU-34">
          <mxGeometry x="26" y="64" width="78" height="22" as="geometry" />
        </mxCell>
        <mxCell id="DrM0dnxs3aiw_zaTAnNU-30" value="业务监控" style="whiteSpace=wrap;html=1;strokeWidth=1.5;fontColor=#000000;fillColor=#FFFFFF;" vertex="1" parent="DrM0dnxs3aiw_zaTAnNU-34">
          <mxGeometry x="26" y="95" width="78" height="22" as="geometry" />
        </mxCell>
        <mxCell id="DrM0dnxs3aiw_zaTAnNU-32" value="监控" style="text;html=1;align=center;verticalAlign=middle;resizable=0;points=[];autosize=1;strokeColor=none;fillColor=none;fontColor=#000000;" vertex="1" parent="DrM0dnxs3aiw_zaTAnNU-34">
          <mxGeometry x="40" y="2.5" width="50" height="30" as="geometry" />
        </mxCell>
        <mxCell id="DrM0dnxs3aiw_zaTAnNU-38" value="" style="group" vertex="1" connectable="0" parent="1">
          <mxGeometry x="352.5" y="80" width="151.5" height="130" as="geometry" />
        </mxCell>
        <mxCell id="DrM0dnxs3aiw_zaTAnNU-39" value="" style="whiteSpace=wrap;html=1;strokeWidth=1.5;fontColor=#000000;fillColor=#FFFFFF;" vertex="1" parent="DrM0dnxs3aiw_zaTAnNU-38">
          <mxGeometry width="151.5" height="130" as="geometry" />
        </mxCell>
        <mxCell id="DrM0dnxs3aiw_zaTAnNU-40" value="生命周期" style="whiteSpace=wrap;html=1;strokeWidth=1.5;fontColor=#000000;fillColor=#FFFFFF;" vertex="1" parent="DrM0dnxs3aiw_zaTAnNU-38">
          <mxGeometry x="30.299999999999997" y="32.5" width="90.9" height="22" as="geometry" />
        </mxCell>
        <mxCell id="DrM0dnxs3aiw_zaTAnNU-41" value="启动配置" style="whiteSpace=wrap;html=1;strokeWidth=1.5;fontColor=#000000;fillColor=#FFFFFF;" vertex="1" parent="DrM0dnxs3aiw_zaTAnNU-38">
          <mxGeometry x="30.299999999999997" y="64" width="90.9" height="22" as="geometry" />
        </mxCell>
        <mxCell id="DrM0dnxs3aiw_zaTAnNU-42" value="样式配置" style="whiteSpace=wrap;html=1;strokeWidth=1.5;fontColor=#000000;fillColor=#FFFFFF;" vertex="1" parent="DrM0dnxs3aiw_zaTAnNU-38">
          <mxGeometry x="30.299999999999997" y="95" width="90.9" height="22" as="geometry" />
        </mxCell>
        <mxCell id="DrM0dnxs3aiw_zaTAnNU-43" value="运行时" style="text;html=1;align=center;verticalAlign=middle;resizable=0;points=[];autosize=1;strokeColor=none;fillColor=none;fontColor=#000000;" vertex="1" parent="DrM0dnxs3aiw_zaTAnNU-38">
          <mxGeometry x="45.75" y="2.5" width="60" height="30" as="geometry" />
        </mxCell>
        <mxCell id="DrM0dnxs3aiw_zaTAnNU-44" value="MiniApp" style="whiteSpace=wrap;html=1;strokeWidth=1.5;fontColor=#000000;fillColor=#FFFFFF;" vertex="1" parent="1">
          <mxGeometry x="352.5" y="20" width="380" height="50" as="geometry" />
        </mxCell>
        <mxCell id="DrM0dnxs3aiw_zaTAnNU-45" value="Android/iOS Bridge" style="whiteSpace=wrap;html=1;strokeWidth=1.5;fontColor=#000000;fillColor=#FFFFFF;" vertex="1" parent="1">
          <mxGeometry x="1080" y="100" width="100" height="130" as="geometry" />
        </mxCell>
        <mxCell id="DrM0dnxs3aiw_zaTAnNU-46" value="小程序容器" style="text;html=1;align=center;verticalAlign=middle;resizable=0;points=[];autosize=1;strokeColor=none;fillColor=none;fontColor=#000000;" vertex="1" parent="1">
          <mxGeometry x="950" y="50" width="80" height="30" as="geometry" />
        </mxCell>
        <mxCell id="DrM0dnxs3aiw_zaTAnNU-47" value="H5容器" style="text;html=1;align=center;verticalAlign=middle;resizable=0;points=[];autosize=1;strokeColor=none;fillColor=none;fontColor=#000000;" vertex="1" parent="1">
          <mxGeometry x="970" y="305" width="60" height="30" as="geometry" />
        </mxCell>
        <mxCell id="DrM0dnxs3aiw_zaTAnNU-48" value="WKWebView" style="whiteSpace=wrap;html=1;strokeWidth=1.5;fontColor=#000000;fillColor=#FFFFFF;" vertex="1" parent="1">
          <mxGeometry x="890" y="480" width="110" height="50" as="geometry" />
        </mxCell>
        <mxCell id="DrM0dnxs3aiw_zaTAnNU-49" value="H5 基建" style="whiteSpace=wrap;html=1;strokeWidth=1.5;fontColor=#000000;fillColor=#FFFFFF;" vertex="1" parent="1">
          <mxGeometry x="890" y="600" width="250" height="40" as="geometry" />
        </mxCell>
        <mxCell id="DrM0dnxs3aiw_zaTAnNU-50" value="样式配置" style="whiteSpace=wrap;html=1;strokeWidth=1.5;fontColor=#000000;fillColor=#FFFFFF;" vertex="1" parent="1">
          <mxGeometry x="890" y="400" width="120" height="60" as="geometry" />
        </mxCell>
        <mxCell id="DrM0dnxs3aiw_zaTAnNU-51" value="LoadingView &amp;amp;&lt;br&gt;&amp;nbsp;ProgressView" style="whiteSpace=wrap;html=1;strokeWidth=1.5;fontColor=#000000;fillColor=#FFFFFF;" vertex="1" parent="1">
          <mxGeometry x="1020" y="400" width="120" height="60" as="geometry" />
        </mxCell>
        <mxCell id="DrM0dnxs3aiw_zaTAnNU-53" value="合规管控层" style="whiteSpace=wrap;html=1;strokeWidth=1.5;fontColor=#000000;fillColor=#FFFFFF;" vertex="1" parent="1">
          <mxGeometry x="345" y="345" width="395" height="25" as="geometry" />
        </mxCell>
        <mxCell id="DrM0dnxs3aiw_zaTAnNU-54" value="H5 &amp;amp;端通信" style="whiteSpace=wrap;html=1;strokeWidth=1.5;fontColor=#000000;fillColor=#FFFFFF;" vertex="1" parent="1">
          <mxGeometry x="890" y="540" width="250" height="50" as="geometry" />
        </mxCell>
        <mxCell id="DrM0dnxs3aiw_zaTAnNU-55" value="小程序基建" style="whiteSpace=wrap;html=1;strokeWidth=1.5;fontColor=#000000;fillColor=#FFFFFF;" vertex="1" parent="1">
          <mxGeometry x="840" y="245" width="350" height="35" as="geometry" />
        </mxCell>
        <mxCell id="DrM0dnxs3aiw_zaTAnNU-56" value="白名单" style="whiteSpace=wrap;html=1;strokeWidth=1.5;fontColor=#000000;fillColor=#FFFFFF;" vertex="1" parent="1">
          <mxGeometry x="1020" y="475" width="120" height="60" as="geometry" />
        </mxCell>
        <mxCell id="DrM0dnxs3aiw_zaTAnNU-57" value="监控" style="whiteSpace=wrap;html=1;strokeWidth=1.5;fontColor=#000000;fillColor=#FFFFFF;" vertex="1" parent="1">
          <mxGeometry x="1160" y="400" width="110" height="130" as="geometry" />
        </mxCell>
      </root>
    </mxGraphModel>
  </diagram>
</mxfile>
